<svg width="24" height="24" viewBox="0 0 24 24" fill="none" xmlns="http://www.w3.org/2000/svg">
<path d="M21.6601 10.4385L20.6801 14.6185C19.8401 18.2285 18.1801 19.6885 15.0601 19.3885C14.5601 19.3485 14.0201 19.2585 13.4401 19.1185L11.7601 18.7185C7.59006 17.7285 6.30006 15.6685 7.28006 11.4885L8.26006 7.29854C8.46006 6.44854 8.70006 5.70854 9.00006 5.09854C10.1701 2.67854 12.1601 2.02854 15.5001 2.81854L17.1701 3.20854C21.3601 4.18854 22.6401 6.25854 21.6601 10.4385Z" stroke="#292D32" stroke-width="1.5" stroke-linecap="round" stroke-linejoin="round"/>
<path d="M15.06 19.3916C14.44 19.8116 13.66 20.1616 12.71 20.4716L11.13 20.9916C7.15998 22.2716 5.06997 21.2016 3.77997 17.2316L2.49997 13.2816C1.21997 9.31156 2.27997 7.21156 6.24997 5.93156L7.82997 5.41156C8.23997 5.28156 8.62997 5.17156 8.99997 5.10156C8.69997 5.71156 8.45997 6.45156 8.25997 7.30156L7.27997 11.4916C6.29997 15.6716 7.58998 17.7316 11.76 18.7216L13.44 19.1216C14.02 19.2616 14.56 19.3516 15.06 19.3916Z" stroke="#292D32" stroke-width="1.5" stroke-linecap="round" stroke-linejoin="round"/>
</svg>
