<svg width="108" height="24" viewBox="0 0 108 24" fill="none" xmlns="http://www.w3.org/2000/svg">
<path d="M13.68 16.6986H4.97142V23.662H0V0.676058H8.46855C15.8742 0.676058 18.3085 3.75211 18.3085 7.90986C18.3085 11.6282 16.2171 13.893 11.5885 13.9944V14.5352H18.6514V23.662H13.68V16.6986ZM8.46855 5.23944H4.97142V12.1352H8.46855C12.1028 12.1352 13.3371 11.3916 13.3371 8.75493C13.3371 6.05071 12.1028 5.23944 8.46855 5.23944Z" fill="#D6F318"/>
<path d="M28.2862 24C24.1033 24 22.1491 21.0254 22.1491 18.0845C22.1491 15.1437 24.1033 12.169 28.2862 12.169C30.9605 12.169 32.2976 13.0141 33.0519 14.1972V10.3099H23.8976V5.9831H38.0233V18.9972H40.3547V23.662H33.0519V21.9718C32.2976 23.1549 30.9605 24 28.2862 24ZM30.1033 20.0451C32.3319 20.0451 33.0519 19.1324 33.0519 18.0845C33.0519 17.0366 32.3319 16.1239 30.1033 16.1239C27.8405 16.1239 27.1205 17.0366 27.1205 18.0845C27.1205 19.1324 27.8405 20.0451 30.1033 20.0451Z" fill="#D6F318"/>
<path d="M53.436 5.64507C58.6132 5.64507 61.0817 9.87042 61.0817 14.8394C61.0817 19.8084 58.6132 24 53.436 24C51.4475 24 49.6989 23.3239 48.4646 21.4986V23.662H43.4932V0H48.4646V8.14648C49.6989 6.32113 51.4475 5.64507 53.436 5.64507ZM52.3046 19.4366C54.876 19.4366 56.1103 17.9831 56.1103 14.8394C56.1103 11.662 54.876 10.2085 52.3046 10.2085C49.6989 10.2085 48.4646 11.662 48.4646 14.8394C48.4646 17.9831 49.6989 19.4366 52.3046 19.4366Z" fill="#D6F318"/>
<path d="M73.8266 5.64507C79.0037 5.64507 81.4723 9.87042 81.4723 14.8394C81.4723 19.8084 79.0037 24 73.8266 24C71.838 24 70.0895 23.3239 68.8552 21.4986V23.662H63.8838V0H68.8552V8.14648C70.0895 6.32113 71.838 5.64507 73.8266 5.64507ZM72.6952 19.4366C75.2666 19.4366 76.5009 17.9831 76.5009 14.8394C76.5009 11.662 75.2666 10.2085 72.6952 10.2085C70.0895 10.2085 68.8552 11.662 68.8552 14.8394C68.8552 17.9831 70.0895 19.4366 72.6952 19.4366Z" fill="#D6F318"/>
<path d="M84.2743 0H89.2458V23.662H84.2743V0Z" fill="#D6F318"/>
<path d="M101.383 24C93.3943 24 92.16 18.4901 92.16 14.8732C92.16 9.76902 94.2858 5.64507 100.149 5.64507C105.874 5.64507 108 9.49859 108 14.5014V16.462H97.3029C97.6457 18.4563 98.7429 19.4366 101.897 19.4366C102.754 19.4366 104.4 19.4366 106.834 18.9634V23.4592C104.16 24 102.686 24 101.383 24ZM97.1657 13.1831H102.994C102.857 11.0873 102 10.2085 100.08 10.2085C98.2286 10.2085 97.3372 11.1549 97.1657 13.1831Z" fill="#D6F318"/>
</svg>
