<?xml version="1.0" standalone="no"?>
<!DOCTYPE svg PUBLIC "-//W3C//DTD SVG 20010904//EN"
 "http://www.w3.org/TR/2001/REC-SVG-20010904/DTD/svg10.dtd">
<svg version="1.0" xmlns="http://www.w3.org/2000/svg"
 width="592.000000pt" height="592.000000pt" viewBox="0 0 592.000000 592.000000"
 preserveAspectRatio="xMidYMid meet">
<metadata>
Created by potrace 1.14, written by Peter Selinger 2001-2017
</metadata>
<g transform="translate(0.000000,592.000000) scale(0.100000,-0.100000)"
fill="#000000" stroke="none">
<path d="M600 2961 l0 -2961 630 0 630 0 2 897 3 897 1102 0 1103 1 0 -897 0
-898 630 0 630 0 0 1175 0 1175 -895 0 -895 0 0 70 0 70 48 1 c26 0 63 2 82 4
65 5 195 17 210 20 104 15 118 18 215 39 146 31 387 120 457 168 14 10 29 18
32 18 10 0 145 94 181 125 173 150 288 315 373 535 21 56 62 197 67 235 2 11
8 52 13 90 36 237 32 524 -9 740 -5 28 -12 66 -15 85 -18 111 -139 413 -199
495 -12 17 -24 35 -26 42 -16 46 -212 259 -315 342 -128 103 -369 232 -554
296 -98 34 -327 97 -395 110 -110 19 -207 35 -250 41 -27 3 -58 8 -68 10 -9 1
-54 6 -100 9 -45 4 -98 9 -117 12 -19 3 -605 8 -1302 10 l-1268 4 0 -2960z
m2450 1775 c691 -54 930 -282 931 -891 1 -341 -77 -551 -254 -681 -120 -89
-290 -146 -502 -170 -27 -3 -61 -8 -75 -11 -14 -3 -310 -8 -657 -10 l-633 -5
0 889 0 889 553 -2 c303 -1 590 -4 637 -8z"/>
</g>
</svg>
