<svg width="16" height="17" viewBox="0 0 16 17" fill="none" xmlns="http://www.w3.org/2000/svg">
<path d="M11.1671 2.8735V1.8335C11.1671 1.56016 10.9405 1.3335 10.6671 1.3335C10.3938 1.3335 10.1671 1.56016 10.1671 1.8335V2.8335H5.83381V1.8335C5.83381 1.56016 5.60715 1.3335 5.33381 1.3335C5.06048 1.3335 4.83381 1.56016 4.83381 1.8335V2.8735C3.03381 3.04016 2.16048 4.1135 2.02714 5.70683C2.01381 5.90016 2.17381 6.06016 2.36048 6.06016H13.6405C13.8338 6.06016 13.9938 5.8935 13.9738 5.70683C13.8405 4.1135 12.9671 3.04016 11.1671 2.8735Z" fill="#D6F318"/>
<path d="M13.3333 7.06006H2.66667C2.3 7.06006 2 7.36006 2 7.72673V11.8334C2 13.8334 3 15.1667 5.33333 15.1667H10.6667C13 15.1667 14 13.8334 14 11.8334V7.72673C14 7.36006 13.7 7.06006 13.3333 7.06006ZM6.14 12.6401C6.10667 12.6667 6.07333 12.7001 6.04 12.7201C6 12.7467 5.96 12.7667 5.92 12.7801C5.88 12.8001 5.84 12.8134 5.8 12.8201C5.75333 12.8267 5.71333 12.8334 5.66667 12.8334C5.58 12.8334 5.49333 12.8134 5.41333 12.7801C5.32667 12.7467 5.26 12.7001 5.19333 12.6401C5.07333 12.5134 5 12.3401 5 12.1667C5 11.9934 5.07333 11.8201 5.19333 11.6934C5.26 11.6334 5.32667 11.5867 5.41333 11.5534C5.53333 11.5001 5.66667 11.4867 5.8 11.5134C5.84 11.5201 5.88 11.5334 5.92 11.5534C5.96 11.5667 6 11.5867 6.04 11.6134C6.07333 11.6401 6.10667 11.6667 6.14 11.6934C6.26 11.8201 6.33333 11.9934 6.33333 12.1667C6.33333 12.3401 6.26 12.5134 6.14 12.6401ZM6.14 10.3067C6.01333 10.4267 5.84 10.5001 5.66667 10.5001C5.49333 10.5001 5.32 10.4267 5.19333 10.3067C5.07333 10.1801 5 10.0067 5 9.83339C5 9.66006 5.07333 9.48673 5.19333 9.36006C5.38 9.17339 5.67333 9.11339 5.92 9.22006C6.00667 9.25339 6.08 9.30006 6.14 9.36006C6.26 9.48673 6.33333 9.66006 6.33333 9.83339C6.33333 10.0067 6.26 10.1801 6.14 10.3067ZM8.47333 12.6401C8.34667 12.7601 8.17333 12.8334 8 12.8334C7.82667 12.8334 7.65333 12.7601 7.52667 12.6401C7.40667 12.5134 7.33333 12.3401 7.33333 12.1667C7.33333 11.9934 7.40667 11.8201 7.52667 11.6934C7.77333 11.4467 8.22667 11.4467 8.47333 11.6934C8.59333 11.8201 8.66667 11.9934 8.66667 12.1667C8.66667 12.3401 8.59333 12.5134 8.47333 12.6401ZM8.47333 10.3067C8.44 10.3334 8.40667 10.3601 8.37333 10.3867C8.33333 10.4134 8.29333 10.4334 8.25333 10.4467C8.21333 10.4667 8.17333 10.4801 8.13333 10.4867C8.08667 10.4934 8.04667 10.5001 8 10.5001C7.82667 10.5001 7.65333 10.4267 7.52667 10.3067C7.40667 10.1801 7.33333 10.0067 7.33333 9.83339C7.33333 9.66006 7.40667 9.48673 7.52667 9.36006C7.58667 9.30006 7.66 9.25339 7.74667 9.22006C7.99333 9.11339 8.28667 9.17339 8.47333 9.36006C8.59333 9.48673 8.66667 9.66006 8.66667 9.83339C8.66667 10.0067 8.59333 10.1801 8.47333 10.3067ZM10.8067 12.6401C10.68 12.7601 10.5067 12.8334 10.3333 12.8334C10.16 12.8334 9.98667 12.7601 9.86 12.6401C9.74 12.5134 9.66667 12.3401 9.66667 12.1667C9.66667 11.9934 9.74 11.8201 9.86 11.6934C10.1067 11.4467 10.56 11.4467 10.8067 11.6934C10.9267 11.8201 11 11.9934 11 12.1667C11 12.3401 10.9267 12.5134 10.8067 12.6401ZM10.8067 10.3067C10.7733 10.3334 10.74 10.3601 10.7067 10.3867C10.6667 10.4134 10.6267 10.4334 10.5867 10.4467C10.5467 10.4667 10.5067 10.4801 10.4667 10.4867C10.42 10.4934 10.3733 10.5001 10.3333 10.5001C10.16 10.5001 9.98667 10.4267 9.86 10.3067C9.74 10.1801 9.66667 10.0067 9.66667 9.83339C9.66667 9.66006 9.74 9.48673 9.86 9.36006C9.92667 9.30006 9.99333 9.25339 10.08 9.22006C10.2 9.16673 10.3333 9.15339 10.4667 9.18006C10.5067 9.18673 10.5467 9.20006 10.5867 9.22006C10.6267 9.23339 10.6667 9.25339 10.7067 9.28006C10.74 9.30673 10.7733 9.33339 10.8067 9.36006C10.9267 9.48673 11 9.66006 11 9.83339C11 10.0067 10.9267 10.1801 10.8067 10.3067Z" fill="#D6F318"/>
</svg>
