<svg width="24" height="24" viewBox="0 0 24 24" fill="none" xmlns="http://www.w3.org/2000/svg">
<path d="M15.58 12C15.58 13.98 13.98 15.58 12 15.58C10.02 15.58 8.41998 13.98 8.41998 12C8.41998 10.02 10.02 8.42004 12 8.42004C13.98 8.42004 15.58 10.02 15.58 12Z" stroke="#667085" stroke-width="1.5" stroke-linecap="round" stroke-linejoin="round"/>
<path d="M12 20.2697C15.53 20.2697 18.82 18.1897 21.11 14.5897C22.01 13.1797 22.01 10.8097 21.11 9.39973C18.82 5.79973 15.53 3.71973 12 3.71973C8.46997 3.71973 5.17997 5.79973 2.88997 9.39973C1.98997 10.8097 1.98997 13.1797 2.88997 14.5897C5.17997 18.1897 8.46997 20.2697 12 20.2697Z" stroke="#667085" stroke-width="1.5" stroke-linecap="round" stroke-linejoin="round"/>
</svg>
