<svg width="24" height="24" viewBox="0 0 24 24" fill="none" xmlns="http://www.w3.org/2000/svg">
<path d="M11.9998 13C12.5521 13 12.9998 12.5523 12.9998 12C12.9998 11.4477 12.5521 11 11.9998 11C11.4476 11 10.9998 11.4477 10.9998 12C10.9998 12.5523 11.4476 13 11.9998 13Z" stroke="#98A2B3" stroke-width="1.99832" stroke-linecap="round" stroke-linejoin="round"/>
<path d="M11.9998 6C12.5521 6 12.9998 5.55228 12.9998 5C12.9998 4.44772 12.5521 4 11.9998 4C11.4476 4 10.9998 4.44772 10.9998 5C10.9998 5.55228 11.4476 6 11.9998 6Z" stroke="#98A2B3" stroke-width="1.99832" stroke-linecap="round" stroke-linejoin="round"/>
<path d="M11.9998 20C12.5521 20 12.9998 19.5523 12.9998 19C12.9998 18.4477 12.5521 18 11.9998 18C11.4476 18 10.9998 18.4477 10.9998 19C10.9998 19.5523 11.4476 20 11.9998 20Z" stroke="#98A2B3" stroke-width="1.99832" stroke-linecap="round" stroke-linejoin="round"/>
</svg>
