<svg width="96" height="96" viewBox="0 0 96 96" fill="none" xmlns="http://www.w3.org/2000/svg">
<path fill-rule="evenodd" clip-rule="evenodd" d="M76 16H20C13.3726 16 8 21.3726 8 28V68C8 74.6274 13.3726 80 20 80H76C82.6274 80 88 74.6274 88 68V28C88 21.3726 82.6274 16 76 16ZM68 40C72.4183 40 76 36.4183 76 32C76 27.5817 72.4183 24 68 24C63.5817 24 60 27.5817 60 32C60 36.4183 63.5817 40 68 40ZM17.1716 66.8284C16.4214 66.0783 16 65.0609 16 64C16 53.448 24 36 32 36C35.8005 36 39.202 40.5137 42.7731 45.2525C46.7192 50.4888 50.8724 56 56 56C60.7466 56 63.6957 54.5218 66.0082 53.3626C67.4997 52.6149 68.7265 52 70 52C73.248 52 80 58.544 80 64C80 65.0609 79.5786 66.0783 78.8284 66.8284C78.0783 67.5786 77.0609 68 76 68H20C18.9391 68 17.9217 67.5786 17.1716 66.8284Z" fill="#364A5C" fill-opacity="0.3"/>
</svg>
