<svg width="100" height="42" viewBox="0 0 100 42" fill="none" xmlns="http://www.w3.org/2000/svg">
<g clip-path="url(#clip0_6356_47240)">
<path d="M7.02773 16.3852C7.02773 15.2968 7.9166 14.878 9.38906 14.878C11.5 14.878 14.1666 15.5201 16.2777 16.6645V10.1053C13.9723 9.1843 11.6945 8.82144 9.38906 8.82144C3.75 8.82144 0 11.7801 0 16.7204C0 24.4235 10.5555 23.1956 10.5555 26.517C10.5555 27.8007 9.44453 28.2195 7.88887 28.2195C5.5834 28.2195 2.63887 27.2704 0.305469 25.9866V32.6293C2.88887 33.7458 5.5 34.2201 7.88887 34.2201C13.6666 34.2201 17.6389 31.3455 17.6389 26.3494C17.6111 18.0321 7.02773 19.5112 7.02773 16.3852ZM25.8055 3.23939L19.0277 4.69064L19 27.0471C19 31.1781 22.0834 34.2201 26.1945 34.2201C28.4723 34.2201 30.1389 33.8015 31.0555 33.2991V27.6333C30.1668 27.9961 25.7777 29.28 25.7777 25.1492V15.2409H31.0555V9.29597H25.7777L25.8055 3.23939ZM39.6945 11.3613L39.25 9.29597H33.25V33.7177H40.1945V17.1668C41.8332 15.0177 44.6111 15.4085 45.4723 15.7154V9.29597C44.5834 8.96097 41.3334 8.34692 39.6945 11.3613ZM47.1666 9.29597H54.1389V33.7177H47.1666V9.29597ZM47.1666 7.17473L54.1389 5.66756V0.00170898L47.1666 1.48102V7.17473ZM68.6389 8.82144C65.9166 8.82144 64.1666 10.1053 63.1945 10.9986L62.8332 9.2681H56.7223V41.8117L63.6666 40.3326L63.6945 32.4339C64.6945 33.1596 66.1666 34.1922 68.6111 34.1922C73.5834 34.1922 78.1111 30.1731 78.1111 21.3255C78.0834 13.2313 73.5 8.82144 68.6389 8.82144ZM66.9723 28.0519C65.3334 28.0519 64.3609 27.4659 63.6945 26.7402L63.6666 16.3852C64.3889 15.5759 65.3889 15.0177 66.9723 15.0177C69.5 15.0177 71.25 17.8645 71.25 21.5208C71.25 25.2609 69.5277 28.0519 66.9723 28.0519ZM100 21.6046C100 14.4594 96.5555 8.82144 89.9723 8.82144C83.3609 8.82144 79.3609 14.4596 79.3609 21.5488C79.3609 29.9498 84.0834 34.1922 90.8609 34.1922C94.1666 34.1922 96.6666 33.4387 98.5555 32.3781V26.7959C96.6668 27.7449 94.5 28.3311 91.75 28.3311C89.0555 28.3311 86.6666 27.3821 86.3611 24.0887H99.9445C99.9445 23.7256 100 22.2744 100 21.6046ZM86.2777 18.9531C86.2777 15.7992 88.1945 14.4873 89.9445 14.4873C91.6389 14.4873 93.4445 15.7992 93.4445 18.9531H86.2777Z" fill="#6772E5"/>
</g>
<defs>
<clipPath id="clip0_6356_47240">
<rect width="100" height="42" fill="white"/>
</clipPath>
</defs>
</svg>
